HIERARCHY
ROOT Hips
{
	OFFSET 0.000000 71.427986 0.000000
	CHANNELS 6 Xposition Yposition Zposition Xrotation Yrotation Zrotation
	JOINT Pelvis
	{
		OFFSET 0.000000 0.000000 0.000000
		CHANNELS 3 Xrotation Yrotation Zrotation
		JOINT LeftUpLeg
		{
			OFFSET 6.797100 -2.508499 -1.318700
			CHANNELS 3 Xrotation Yrotation Zrotation
			JOINT LeftLeg
			{
				OFFSET 0.069008 -29.241863 0.690200
				CHANNELS 3 Xrotation Yrotation Zrotation
				JOINT LeftFoot
				{
					OFFSET -0.069008 -29.568123 -0.266800
					CHANNELS 3 Xrotation Yrotation Zrotation
					JOINT LeftToeBase
					{
						OFFSET 3.145500 -8.631000 16.059900
						CHANNELS 3 Xrotation Yrotation Zrotation
						End Site
						{
							OFFSET 0.000000 18.501587 0.000000
						}
					}
				}
			}
			JOINT Left_ShortSleeve
			{
				OFFSET 0.265923 -10.480953 1.153800
				CHANNELS 3 Xrotation Yrotation Zrotation
				End Site
				{
					OFFSET 1.725763 19.823879 0.000000
				}
			}
		}
		JOINT RightUpLeg
		{
			OFFSET -6.797100 -2.508499 -1.318700
			CHANNELS 3 Xrotation Yrotation Zrotation
			JOINT RightLeg
			{
				OFFSET -0.082453 -29.241932 0.688000
				CHANNELS 3 Xrotation Yrotation Zrotation
				JOINT RightFoot
				{
					OFFSET 0.082453 -29.568058 -0.264600
					CHANNELS 3 Xrotation Yrotation Zrotation
					JOINT RightToeBase
					{
						OFFSET -3.115300 -8.682800 16.113400
						CHANNELS 3 Xrotation Yrotation Zrotation
						End Site
						{
							OFFSET 0.000000 18.567114 0.000000
						}
					}
				}
			}
			JOINT Right_ShortSleeve
			{
				OFFSET -0.265923 -10.480953 1.153800
				CHANNELS 3 Xrotation Yrotation Zrotation
				End Site
				{
					OFFSET -1.725766 19.823910 0.000000
				}
			}
		}
	}
	JOINT Spine
	{
		OFFSET 0.000000 13.368103 0.470500
		CHANNELS 3 Xrotation Yrotation Zrotation
		JOINT Spine1
		{
			OFFSET 0.147000 13.837402 0.538800
			CHANNELS 3 Xrotation Yrotation Zrotation
			JOINT Spine2
			{
				OFFSET 0.168000 16.242897 -1.435500
				CHANNELS 3 Xrotation Yrotation Zrotation
				JOINT Neck
				{
					OFFSET 0.217200 18.631500 -1.679100
					CHANNELS 3 Xrotation Yrotation Zrotation
					JOINT Head
					{
						OFFSET 0.000000 6.599396 1.385900
						CHANNELS 3 Xrotation Yrotation Zrotation
						JOINT Hat
						{
							OFFSET -0.532200 27.220596 -10.096100
							CHANNELS 3 Xrotation Yrotation Zrotation
							End Site
							{
								OFFSET 0.000000 22.029861 0.000000
							}
						}
						JOINT HairD
						{
							OFFSET -10.777400 17.437393 -1.325900
							CHANNELS 3 Xrotation Yrotation Zrotation
							JOINT HairD1
							{
								OFFSET -3.290299 -11.051193 1.062200
								CHANNELS 3 Xrotation Yrotation Zrotation
								End Site
								{
									OFFSET 0.000000 11.579437 0.000000
								}
							}
						}
						JOINT HairB
						{
							OFFSET -10.777400 17.437393 1.467900
							CHANNELS 3 Xrotation Yrotation Zrotation
							JOINT HairB1
							{
								OFFSET -1.561200 -12.956299 3.590200
								CHANNELS 3 Xrotation Yrotation Zrotation
								End Site
								{
									OFFSET 0.000000 13.534866 0.000000
								}
							}
						}
						JOINT HairA
						{
							OFFSET 9.713100 17.437393 1.467900
							CHANNELS 3 Xrotation Yrotation Zrotation
							JOINT HairA1
							{
								OFFSET 1.561200 -12.956299 3.590200
								CHANNELS 3 Xrotation Yrotation Zrotation
								End Site
								{
									OFFSET 0.000000 13.534866 0.000000
								}
							}
						}
						JOINT HairC
						{
							OFFSET 9.713100 17.437393 -1.325900
							CHANNELS 3 Xrotation Yrotation Zrotation
							JOINT HairC1
							{
								OFFSET 3.290300 -11.051193 1.062200
								CHANNELS 3 Xrotation Yrotation Zrotation
								End Site
								{
									OFFSET 0.000000 11.579437 0.000000
								}
							}
						}
					}
				}
				JOINT LeftShoulder
				{
					OFFSET 5.101800 15.108002 -2.763700
					CHANNELS 3 Xrotation Yrotation Zrotation
					JOINT LeftArm
					{
						OFFSET 9.825497 2.506317 -1.597400
						CHANNELS 3 Xrotation Yrotation Zrotation
						JOINT LeftForeArm
						{
							OFFSET 21.966244 0.000000 0.000000
							CHANNELS 3 Xrotation Yrotation Zrotation
							JOINT LeftHand
							{
								OFFSET 33.879036 0.000000 0.000000
								CHANNELS 3 Xrotation Yrotation Zrotation
								JOINT LeftHandThumb1
								{
									OFFSET 6.715286 -2.359680 3.363841
									CHANNELS 3 Xrotation Yrotation Zrotation
									JOINT LeftHandThumb2
									{
										OFFSET 2.507072 -1.447464 1.447461
										CHANNELS 3 Xrotation Yrotation Zrotation
										JOINT LeftHandThumb3
										{
											OFFSET 2.898338 -1.673355 1.673357
											CHANNELS 3 Xrotation Yrotation Zrotation
											End Site
											{
												OFFSET -0.295959 3.727692 -0.131651
											}
										}
									}
								}
								JOINT LeftHandIndex1
								{
									OFFSET 14.190811 -0.254547 3.840278
									CHANNELS 3 Xrotation Yrotation Zrotation
									JOINT LeftHandIndex2
									{
										OFFSET 3.551727 0.000000 -0.000000
										CHANNELS 3 Xrotation Yrotation Zrotation
										JOINT LeftHandIndex3
										{
											OFFSET 2.894196 0.000000 0.000000
											CHANNELS 3 Xrotation Yrotation Zrotation
											End Site
											{
												OFFSET -1.000603 2.690872 0.366626
											}
										}
									}
								}
								JOINT LeftHandMiddle1
								{
									OFFSET 13.776489 0.000000 0.000000
									CHANNELS 3 Xrotation Yrotation Zrotation
									JOINT LeftHandMiddle2
									{
										OFFSET 3.438232 0.000000 0.000000
										CHANNELS 3 Xrotation Yrotation Zrotation
										JOINT LeftHandMiddle3
										{
											OFFSET 3.691551 0.000000 0.000000
											CHANNELS 3 Xrotation Yrotation Zrotation
											End Site
											{
												OFFSET -1.082298 3.499527 0.457670
											}
										}
									}
								}
								JOINT LeftHandRing1
								{
									OFFSET 13.966164 -0.268127 -3.067488
									CHANNELS 3 Xrotation Yrotation Zrotation
									JOINT LeftHandRing2
									{
										OFFSET 3.162567 0.000000 0.000000
										CHANNELS 3 Xrotation Yrotation Zrotation
										JOINT LeftHandRing3
										{
											OFFSET 3.324348 0.000000 0.000000
											CHANNELS 3 Xrotation Yrotation Zrotation
											End Site
											{
												OFFSET -0.861900 3.184998 0.405154
											}
										}
									}
								}
								JOINT LeftHandPinky1
								{
									OFFSET 13.131393 -0.168503 -5.746925
									CHANNELS 3 Xrotation Yrotation Zrotation
									JOINT LeftHandPinky2
									{
										OFFSET 2.849182 0.000000 0.000000
										CHANNELS 3 Xrotation Yrotation Zrotation
										JOINT LeftHandPinky3
										{
											OFFSET 2.805038 0.000000 0.000000
											CHANNELS 3 Xrotation Yrotation Zrotation
											End Site
											{
												OFFSET -0.882500 2.642609 0.325652
											}
										}
									}
								}
							}
							JOINT Left_Sleeve
							{
								OFFSET 6.592125 -0.646545 0.805568
								CHANNELS 3 Xrotation Yrotation Zrotation
								End Site
								{
									OFFSET -0.000179 20.275787 -0.000000
								}
							}
						}
					}
				}
				JOINT RightShoulder
				{
					OFFSET -5.731700 15.108002 -2.763700
					CHANNELS 3 Xrotation Yrotation Zrotation
					JOINT RightArm
					{
						OFFSET -9.825497 2.506317 -1.597400
						CHANNELS 3 Xrotation Yrotation Zrotation
						JOINT RightForeArm
						{
							OFFSET -21.966242 0.000000 0.000000
							CHANNELS 3 Xrotation Yrotation Zrotation
							JOINT RightHand
							{
								OFFSET -33.879032 0.000000 0.000000
								CHANNELS 3 Xrotation Yrotation Zrotation
								JOINT RightHandThumb1
								{
									OFFSET -6.715286 -2.359680 3.363841
									CHANNELS 3 Xrotation Yrotation Zrotation
									JOINT RightHandThumb2
									{
										OFFSET -2.507072 -1.447464 1.447461
										CHANNELS 3 Xrotation Yrotation Zrotation
										JOINT RightHandThumb3
										{
											OFFSET -2.898338 -1.673355 1.673357
											CHANNELS 3 Xrotation Yrotation Zrotation
											End Site
											{
												OFFSET 0.295959 3.727692 -0.131651
											}
										}
									}
								}
								JOINT RightHandIndex1
								{
									OFFSET -14.190811 -0.254547 3.840278
									CHANNELS 3 Xrotation Yrotation Zrotation
									JOINT RightHandIndex2
									{
										OFFSET -3.551727 0.000000 -0.000000
										CHANNELS 3 Xrotation Yrotation Zrotation
										JOINT RightHandIndex3
										{
											OFFSET -2.894196 0.000000 0.000000
											CHANNELS 3 Xrotation Yrotation Zrotation
											End Site
											{
												OFFSET 1.000603 2.690872 0.366626
											}
										}
									}
								}
								JOINT RightHandMiddle1
								{
									OFFSET -13.776489 0.000000 0.000000
									CHANNELS 3 Xrotation Yrotation Zrotation
									JOINT RightHandMiddle2
									{
										OFFSET -3.438232 0.000000 0.000000
										CHANNELS 3 Xrotation Yrotation Zrotation
										JOINT RightHandMiddle3
										{
											OFFSET -3.691551 0.000000 0.000000
											CHANNELS 3 Xrotation Yrotation Zrotation
											End Site
											{
												OFFSET 1.082298 3.499527 0.457670
											}
										}
									}
								}
								JOINT RightHandRing1
								{
									OFFSET -13.966164 -0.268127 -3.067488
									CHANNELS 3 Xrotation Yrotation Zrotation
									JOINT RightHandRing2
									{
										OFFSET -3.162567 0.000000 0.000000
										CHANNELS 3 Xrotation Yrotation Zrotation
										JOINT RightHandRing3
										{
											OFFSET -3.324348 0.000000 0.000000
											CHANNELS 3 Xrotation Yrotation Zrotation
											End Site
											{
												OFFSET 0.861900 3.184998 0.405154
											}
										}
									}
								}
								JOINT RightHandPinky1
								{
									OFFSET -13.131393 -0.168503 -5.746925
									CHANNELS 3 Xrotation Yrotation Zrotation
									JOINT RightHandPinky2
									{
										OFFSET -2.849182 0.000000 0.000000
										CHANNELS 3 Xrotation Yrotation Zrotation
										JOINT RightHandPinky3
										{
											OFFSET -2.805038 0.000000 0.000000
											CHANNELS 3 Xrotation Yrotation Zrotation
											End Site
											{
												OFFSET 0.882500 2.642609 0.325652
											}
										}
									}
								}
							}
							JOINT Right_Sleeve
							{
								OFFSET -6.592125 -0.646545 0.805568
								CHANNELS 3 Xrotation Yrotation Zrotation
								End Site
								{
									OFFSET 0.000179 20.275787 -0.000000
								}
							}
						}
					}
				}
				JOINT Bind_Right_JacketString
				{
					OFFSET -3.534800 11.969597 7.200700
					CHANNELS 3 Xrotation Yrotation Zrotation
					JOINT Bind_Right_JacketString1
					{
						OFFSET -0.319900 -6.102600 2.794100
						CHANNELS 3 Xrotation Yrotation Zrotation
						End Site
						{
							OFFSET 0.000000 6.719452 0.000000
						}
					}
				}
				JOINT Bind_Left_JacketString
				{
					OFFSET 2.904800 11.969597 7.200700
					CHANNELS 3 Xrotation Yrotation Zrotation
					JOINT Bind_Left_JacketString1
					{
						OFFSET 0.364800 -5.904503 3.186800
						CHANNELS 3 Xrotation Yrotation Zrotation
						End Site
						{
							OFFSET 0.000000 6.719513 0.000000
						}
					}
				}
				JOINT HairE
				{
					OFFSET 5.915200 17.612701 -11.592200
					CHANNELS 3 Xrotation Yrotation Zrotation
					JOINT HairE1
					{
						OFFSET 0.289200 -7.171898 -1.284500
						CHANNELS 3 Xrotation Yrotation Zrotation
						End Site
						{
							OFFSET 0.000000 7.291756 0.000000
						}
					}
				}
				JOINT HairF
				{
					OFFSET -0.864800 17.612701 -11.592200
					CHANNELS 3 Xrotation Yrotation Zrotation
					JOINT HairF1
					{
						OFFSET 0.000000 -14.087097 -2.127501
						CHANNELS 3 Xrotation Yrotation Zrotation
						End Site
						{
							OFFSET 0.000000 14.246841 0.000000
						}
					}
				}
				JOINT HairG
				{
					OFFSET -8.087700 17.612701 -11.592200
					CHANNELS 3 Xrotation Yrotation Zrotation
					JOINT HairG1
					{
						OFFSET -0.293600 -6.081398 -0.910100
						CHANNELS 3 Xrotation Yrotation Zrotation
						End Site
						{
							OFFSET 0.000000 6.156120 0.000000
						}
					}
				}
			}
		}
	}
	JOINT Pouch
	{
		OFFSET 0.000000 4.394501 10.847300
		CHANNELS 3 Xrotation Yrotation Zrotation
		End Site
		{
			OFFSET 0.000000 21.880577 0.000000
		}
	}
	JOINT Bag
	{
		OFFSET -13.229000 4.813004 -0.593300
		CHANNELS 3 Xrotation Yrotation Zrotation
		End Site
		{
			OFFSET 0.000000 21.880577 0.000000
		}
	}
	JOINT OccupyGuyFacialAnim_Joint
	{
		OFFSET 1.000000 -70.206398 -1.655000
		CHANNELS 3 Xrotation Yrotation Zrotation
		End Site
		{
			OFFSET 0.000000 21.880577 0.000000
		}
	}
}
MOTION
Frames: 4
Frame Time: 0.033333
6.175519 70.012535 12.661647 5.700129 -13.213535 -3.831165 0.000000 -0.000001 -0.000000 -21.009747 0.919701 -0.981019 31.407966 7.359265 4.349721 -16.184400 -1.158907 5.462038 -0.000000 -0.000000 0.000000 -0.000001 0.000000 -0.000000 -13.687763 -12.739112 -17.249662 38.741987 -12.733384 -1.491121 18.486114 -18.793409 29.690901 -0.000001 -0.000000 0.000001 0.000000 0.000002 -0.000000 6.129275 0.868858 -1.611248 10.603745 0.931884 -1.124861 10.628052 1.029972 -0.676363 -7.036294 3.412481 -7.273824 -4.311873 5.790555 -1.126113 -0.000001 0.000000 -0.000000 -0.000001 0.000000 -0.000000 -0.000001 0.000000 0.000000 -0.000001 0.000000 -0.000000 -0.000001 0.000000 -0.000000 -0.000001 0.000000 -0.000000 -0.000001 0.000000 -0.000000 -0.000001 0.000000 -0.000000 -0.000001 0.000000 -0.000000 -0.365381 7.124134 -0.930678 -67.095407 -46.137597 -90.249168 0.000009 -52.894211 0.000011 -16.919632 7.009555 36.677962 12.212228 6.036536 -8.712886 5.975222 12.647529 1.348344 -0.000001 -0.000000 0.000001 1.489958 6.219153 -46.026271 4.918455 5.776470 -80.812695 0.000001 0.000001 -0.000002 3.033008 7.465344 -65.121920 3.601218 5.402596 -67.350822 0.000001 0.000001 -0.000001 3.883774 7.836672 -69.918037 3.412212 5.320151 -65.328061 -0.000000 -0.000001 0.000001 3.189740 7.690075 -75.471446 2.279020 4.637152 -52.326428 0.000001 -0.000004 0.000006 0.000003 -0.000001 -0.000004 0.913793 6.300699 -5.518399 -87.551141 36.760601 92.534515 0.000017 29.695026 -0.000009 -62.559362 7.476026 -9.964287 32.130644 38.912021 9.291976 20.823893 -37.088839 -0.293011 -0.000001 -0.000001 0.000001 2.216610 -6.204275 57.585386 1.992914 -3.821176 55.075500 0.000000 0.000000 -0.000001 3.962060 -6.871861 80.768018 3.253754 -4.441117 72.443418 0.000000 -0.000000 -0.000001 5.085945 -6.916484 94.647905 2.177034 -3.943080 57.794008 -0.000000 -0.000001 -0.000000 4.020054 -6.888674 82.190829 2.455234 -4.104767 61.757334 0.000001 -0.000001 -0.000001 0.000002 -0.000001 0.000000 -0.000003 -0.000000 -0.000000 -0.000003 0.000001 0.000000 -0.000003 -0.000000 -0.000000 -0.000003 -0.000000 -0.000000 -0.000003 -0.000000 -0.000000 -0.000003 0.000001 0.000000 -0.000003 -0.000000 -0.000000 -0.000003 -0.000000 -0.000000 -0.000003 -0.000000 -0.000000 -0.000003 0.000001 0.000000 0.000000 -0.000001 -0.000000 0.000000 -0.000001 -0.000000 0.000000 -0.000001 -0.000000 
6.152399 69.951584 12.522257 5.569498 -13.555386 -3.528897 -0.000000 0.000001 0.000000 -21.082682 0.813904 -1.311754 31.577631 7.937723 4.394968 -16.167782 -1.129496 5.254985 0.000000 0.000000 -0.000000 -0.000001 -0.000001 -0.000000 -13.380480 -12.828472 -17.520251 38.269465 -12.677319 -1.656449 17.659884 -18.097898 29.975002 -0.000000 0.000001 0.000001 0.000001 0.000003 0.000002 6.167761 0.930245 -1.683367 10.714396 1.153707 -1.272056 10.741168 1.249003 -0.844270 -5.914618 3.408131 -7.014326 -3.581054 6.267908 -0.507967 0.000002 -0.000000 -0.000001 0.000002 -0.000000 -0.000001 0.000002 -0.000000 -0.000001 0.000002 -0.000000 -0.000000 0.000001 -0.000000 -0.000000 0.000002 -0.000000 -0.000000 0.000001 -0.000000 -0.000000 0.000002 -0.000000 -0.000001 0.000002 -0.000000 -0.000001 -0.373865 7.380687 -1.059838 -65.902610 -46.521392 -90.100188 -0.000021 -53.175997 -0.000023 -16.306593 7.003937 36.598957 12.212239 6.036508 -8.712894 5.975229 12.647527 1.348346 0.000000 -0.000004 0.000001 1.489955 6.219131 -46.026275 4.918422 5.776499 -80.812688 0.000001 0.000001 -0.000000 3.033011 7.465334 -65.121920 3.601205 5.402602 -67.350829 -0.000001 0.000001 -0.000004 3.883759 7.836657 -69.918072 3.412202 5.320159 -65.328068 0.000001 -0.000000 -0.000003 3.189735 7.690076 -75.471439 2.279018 4.637151 -52.326431 0.000001 -0.000003 0.000003 0.000002 0.000002 0.000000 0.925158 6.567416 -4.792643 -85.459682 36.955620 91.834946 0.000000 31.163903 0.000001 -62.428059 7.620932 -10.374070 32.130641 38.912025 9.291964 20.823891 -37.088836 -0.292974 0.000001 -0.000001 -0.000000 2.216615 -6.204269 57.585386 1.992913 -3.821175 55.075514 -0.000002 -0.000002 0.000002 3.962070 -6.871847 80.768011 3.253757 -4.441118 72.443411 0.000001 -0.000000 -0.000001 5.085948 -6.916463 94.647905 2.177011 -3.943081 57.793994 -0.000001 0.000000 -0.000002 4.020061 -6.888674 82.190835 2.455260 -4.104760 61.757341 -0.000001 -0.000002 -0.000003 0.000003 -0.000000 0.000000 -0.000002 -0.000001 0.000001 -0.000002 0.000000 0.000000 -0.000002 -0.000001 0.000000 -0.000002 -0.000001 0.000000 -0.000002 -0.000001 0.000001 -0.000002 0.000000 0.000001 -0.000002 -0.000001 0.000000 -0.000002 -0.000001 0.000000 -0.000002 -0.000001 0.000001 -0.000002 0.000000 0.000001 -0.000000 0.000001 0.000000 -0.000000 0.000001 0.000000 -0.000000 0.000001 0.000000 
6.116810 69.898201 12.464417 5.151009 -13.911766 -3.263183 0.000000 0.000000 -0.000000 -20.765568 0.756204 -1.653959 31.721594 8.514352 4.412241 -16.236828 -1.109209 5.056185 -0.000000 -0.000000 0.000000 0.000002 -0.000002 0.000000 -12.588742 -12.872145 -17.677629 37.510467 -12.624180 -2.175375 17.033312 -17.074404 30.655945 0.000000 0.000001 0.000001 0.000000 -0.000003 -0.000001 6.202644 0.995321 -1.791133 10.800107 1.366393 -1.455731 10.830380 1.458783 -1.050585 -4.655705 3.421988 -6.695218 -2.459528 6.763819 0.655856 0.000001 0.000000 0.000000 0.000001 0.000000 0.000000 0.000001 0.000000 0.000001 0.000001 0.000000 0.000001 0.000001 0.000000 -0.000000 0.000001 0.000000 0.000001 0.000001 0.000000 -0.000000 0.000001 0.000000 0.000000 0.000001 0.000000 0.000000 -0.371063 7.519668 -1.280732 -64.166574 -46.877712 -89.396152 -0.000018 -53.562579 -0.000012 -15.725134 6.940347 36.146987 12.212228 6.036531 -8.712868 5.975226 12.647530 1.348349 0.000002 -0.000003 0.000000 1.489954 6.219150 -46.026278 4.918458 5.776472 -80.812701 0.000003 0.000000 -0.000000 3.033004 7.465345 -65.121926 3.601243 5.402609 -67.350829 0.000004 -0.000001 -0.000003 3.883759 7.836671 -69.918085 3.412204 5.320166 -65.328027 -0.000002 -0.000002 0.000001 3.189732 7.690076 -75.471439 2.279017 4.637152 -52.326438 -0.000000 0.000000 0.000003 0.000002 0.000001 0.000003 0.877328 6.563939 -3.388632 -84.112270 38.084117 91.784444 -0.000005 31.723121 0.000004 -62.612843 8.077022 -10.714221 32.130654 38.912032 9.291977 20.823891 -37.088866 -0.292998 -0.000001 -0.000001 -0.000000 2.216611 -6.204270 57.585380 1.992917 -3.821192 55.075510 -0.000001 0.000001 0.000002 3.962064 -6.871843 80.768011 3.253753 -4.441118 72.443397 -0.000000 -0.000000 0.000004 5.085935 -6.916464 94.647905 2.177025 -3.943079 57.794001 0.000003 0.000006 -0.000001 4.020067 -6.888674 82.190835 2.455250 -4.104774 61.757348 -0.000001 0.000001 -0.000003 -0.000000 0.000000 -0.000001 -0.000002 -0.000000 0.000000 -0.000002 -0.000000 0.000000 -0.000002 -0.000000 0.000000 -0.000002 -0.000000 0.000000 -0.000002 -0.000000 0.000000 -0.000002 -0.000000 0.000000 -0.000002 -0.000000 0.000000 -0.000002 -0.000000 0.000000 -0.000002 -0.000000 0.000000 -0.000002 -0.000000 0.000000 0.000000 0.000000 -0.000000 0.000000 0.000000 -0.000000 0.000000 0.000000 -0.000000 
6.066939 69.847733 12.462729 4.559679 -14.317419 -3.018537 -0.000000 -0.000000 -0.000000 -20.209099 0.769593 -1.969951 31.867702 9.068683 4.369775 -16.379355 -1.098061 4.880636 0.000000 -0.000000 0.000000 -0.000000 -0.000001 0.000001 -11.589043 -12.801100 -17.754865 36.676992 -12.636401 -3.000551 16.577800 -15.739744 31.485550 -0.000000 0.000000 0.000000 -0.000000 -0.000001 -0.000000 6.204463 1.066372 -1.915773 10.824735 1.578169 -1.626804 10.857327 1.664408 -1.249086 -3.201698 3.407366 -6.219630 -1.136991 7.389937 1.798077 -0.000000 -0.000000 -0.000000 -0.000000 -0.000000 -0.000000 -0.000000 -0.000000 -0.000000 -0.000000 -0.000000 -0.000000 -0.000002 -0.000000 -0.000000 -0.000000 -0.000000 -0.000000 -0.000002 -0.000000 -0.000000 -0.000000 -0.000000 -0.000000 -0.000000 -0.000000 -0.000000 -0.356947 7.659958 -1.522118 -62.040036 -46.954955 -88.594957 0.000012 -54.019830 0.000010 -15.109357 6.620825 35.338446 12.212237 6.036540 -8.712862 5.975225 12.647527 1.348344 0.000001 -0.000001 0.000002 1.489962 6.219131 -46.026264 4.918435 5.776486 -80.812681 0.000004 -0.000000 0.000002 3.033000 7.465352 -65.121920 3.601221 5.402600 -67.350836 0.000001 -0.000001 -0.000003 3.883754 7.836660 -69.918065 3.412204 5.320170 -65.328041 -0.000003 0.000000 0.000001 3.189733 7.690078 -75.471425 2.279019 4.637150 -52.326434 0.000000 0.000001 -0.000000 0.000000 0.000000 -0.000001 0.817147 6.352084 -2.254231 -82.696522 39.574529 91.890531 -0.000005 32.421166 0.000001 -62.854256 8.766056 -11.569489 31.958441 38.555089 9.621649 20.764106 -37.287437 -0.490005 -0.000001 -0.000001 -0.000000 2.220488 -6.206744 57.631695 1.994647 -3.822346 55.100932 -0.000000 -0.000002 -0.000002 3.966346 -6.872531 80.801978 3.254361 -4.441317 72.451375 -0.000000 0.000000 -0.000001 5.084996 -6.916542 94.673744 2.176681 -3.942854 57.788981 -0.000000 0.000002 -0.000002 4.020047 -6.888682 82.197789 2.454810 -4.104539 61.751194 -0.000002 -0.000003 -0.000002 -0.000000 0.000001 -0.000001 -0.000001 -0.000001 0.000001 0.000000 0.000000 -0.000000 -0.000001 -0.000001 0.000000 -0.000001 -0.000001 0.000000 -0.000001 -0.000001 0.000001 0.000000 0.000000 -0.000000 -0.000001 -0.000001 0.000000 -0.000001 -0.000001 0.000000 -0.000001 -0.000001 0.000001 0.000000 0.000000 -0.000000 -0.000000 -0.000000 -0.000000 -0.000000 -0.000000 -0.000000 -0.000000 -0.000000 -0.000000 
